<svg width="239" height="71" viewBox="0 0 239 71" fill="none" xmlns="http://www.w3.org/2000/svg">
<g clip-path="url(#clip0_37_31)">
<path d="M230.239 0H8.7515C3.85744 0 -0.109985 3.97403 -0.109985 8.87625V62.1237C-0.109985 67.026 3.85744 71 8.7515 71H230.239C235.133 71 239.1 67.026 239.1 62.1237V8.87625C239.1 3.97403 235.133 0 230.239 0Z" fill="black"/>
<path d="M230.249 1.4226C234.349 1.4226 237.69 4.76873 237.69 8.87625V62.1237C237.69 66.2313 234.349 69.5774 230.249 69.5774H8.7515C4.65081 69.5774 1.31025 66.2313 1.31025 62.1237V8.87625C1.31025 4.76873 4.65081 1.4226 8.7515 1.4226H230.249ZM230.249 0H8.7515C3.88068 0 -0.109985 3.99732 -0.109985 8.87625V62.1237C-0.109985 67.0027 3.88068 71 8.7515 71H230.249C235.119 71 239.11 67.0027 239.11 62.1237V8.87625C239.11 3.99732 235.119 0 230.249 0Z" fill="#A6A6A6"/>
<path d="M83.914 18.1831C83.914 19.6658 83.474 20.858 82.5938 21.7396C81.5936 22.7916 80.2934 23.3125 78.6932 23.3125C77.0929 23.3125 75.8527 22.7815 74.7825 21.7196C73.7123 20.6576 73.1722 19.3352 73.1722 17.7523C73.1722 16.1694 73.7123 14.857 74.7825 13.7851C75.8527 12.7231 77.1629 12.1821 78.6932 12.1821C79.4533 12.1821 80.1834 12.3324 80.8735 12.6229C81.5636 12.9235 82.1237 13.3142 82.5338 13.8151L81.6036 14.7568C80.9035 13.9153 79.9334 13.4945 78.6932 13.4945C77.573 13.4945 76.6028 13.8852 75.7927 14.6767C74.9825 15.4681 74.5725 16.49 74.5725 17.7423C74.5725 18.9946 74.9825 20.0265 75.7927 20.8079C76.6128 21.5994 77.573 21.9901 78.6932 21.9901C79.8834 21.9901 80.8735 21.5894 81.6637 20.7979C82.1737 20.277 82.4738 19.5656 82.5538 18.644H78.6932V17.3616H83.844C83.894 17.6421 83.914 17.9026 83.914 18.1631V18.1831Z" fill="white" stroke="white" stroke-width="0.2" stroke-miterlimit="10"/>
<path d="M92.0854 13.735H87.2446V17.1112H91.6153V18.3935H87.2446V21.7697H92.0854V23.0821H85.8744V12.4326H92.0854V13.745V13.735Z" fill="white" stroke="white" stroke-width="0.2" stroke-miterlimit="10"/>
<path d="M97.8464 23.0719H96.4761V13.7348H93.5056V12.4224H100.807V13.7348H97.8364V23.0719H97.8464Z" fill="white" stroke="white" stroke-width="0.2" stroke-miterlimit="10"/>
<path d="M106.098 23.0719V12.4224H107.458V23.0719H106.098Z" fill="white" stroke="white" stroke-width="0.2" stroke-miterlimit="10"/>
<path d="M113.529 23.0719H112.159V13.7348H109.188V12.4224H116.489V13.7348H113.519V23.0719H113.529Z" fill="white" stroke="white" stroke-width="0.2" stroke-miterlimit="10"/>
<path d="M130.322 21.6998C129.272 22.7818 127.981 23.3127 126.421 23.3127C124.861 23.3127 123.571 22.7718 122.52 21.6998C121.47 20.6278 120.95 19.3054 120.95 17.7526C120.95 16.1997 121.47 14.8773 122.52 13.8053C123.561 12.7234 124.861 12.1924 126.421 12.1924C127.981 12.1924 129.262 12.7334 130.312 13.8154C131.362 14.8973 131.882 16.2097 131.882 17.7526C131.882 19.2954 131.362 20.6278 130.312 21.6998H130.322ZM123.541 20.8082C124.331 21.6096 125.291 22.0003 126.431 22.0003C127.571 22.0003 128.531 21.5996 129.322 20.8082C130.112 20.0067 130.502 18.9948 130.502 17.7526C130.502 16.5103 130.102 15.4884 129.322 14.697C128.541 13.8955 127.571 13.5048 126.431 13.5048C125.291 13.5048 124.331 13.9055 123.541 14.697C122.761 15.4984 122.36 16.5103 122.36 17.7526C122.36 18.9948 122.761 20.0167 123.541 20.8082Z" fill="white" stroke="white" stroke-width="0.2" stroke-miterlimit="10"/>
<path d="M133.812 23.0719V12.4224H135.473L140.644 20.7075H140.704L140.644 18.6538V12.4224H142.014V23.0719H140.584L135.173 14.386H135.113L135.173 16.4397V23.0719H133.802H133.812Z" fill="white" stroke="white" stroke-width="0.2" stroke-miterlimit="10"/>
<path d="M120.63 38.6107C116.459 38.6107 113.069 41.7865 113.069 46.1545C113.069 50.5225 116.469 53.6983 120.63 53.6983C124.791 53.6983 128.191 50.4924 128.191 46.1545C128.191 41.8165 124.791 38.6107 120.63 38.6107ZM120.63 50.7329C118.35 50.7329 116.379 48.8494 116.379 46.1545C116.379 43.4595 118.35 41.5761 120.63 41.5761C122.911 41.5761 124.881 43.4295 124.881 46.1545C124.881 48.8795 122.911 50.7329 120.63 50.7329ZM104.127 38.6107C99.9567 38.6107 96.5662 41.7865 96.5662 46.1545C96.5662 50.5225 99.9667 53.6983 104.127 53.6983C108.288 53.6983 111.689 50.4924 111.689 46.1545C111.689 41.8165 108.288 38.6107 104.127 38.6107ZM104.127 50.7329C101.847 50.7329 99.8767 48.8494 99.8767 46.1545C99.8767 43.4595 101.847 41.5761 104.127 41.5761C106.408 41.5761 108.378 43.4295 108.378 46.1545C108.378 48.8795 106.408 50.7329 104.127 50.7329ZM84.4942 40.9249V44.1308H92.1454C91.9154 45.9341 91.3153 47.2465 90.4051 48.1682C89.295 49.2802 87.5547 50.5125 84.4942 50.5125C79.7834 50.5125 76.1027 46.7055 76.1027 41.9868C76.1027 37.2682 79.7834 33.4612 84.4942 33.4612C87.0346 33.4612 88.8949 34.4631 90.2551 35.7454L92.5155 33.4813C90.6052 31.6479 88.0647 30.2554 84.4942 30.2554C78.0431 30.2554 72.6222 35.515 72.6222 41.9768C72.6222 48.4387 78.0431 53.6983 84.4942 53.6983C87.9747 53.6983 90.6052 52.5562 92.6555 50.4123C94.7659 48.2984 95.426 45.323 95.426 42.9186C95.426 42.1772 95.366 41.4859 95.2559 40.9149H84.4942V40.9249ZM164.778 43.4095C164.147 41.7264 162.237 38.6006 158.327 38.6006C154.416 38.6006 151.215 41.6562 151.215 46.1445C151.215 50.3722 154.416 53.6883 158.697 53.6883C162.147 53.6883 164.147 51.5744 164.978 50.3421L162.407 48.629C161.547 49.8913 160.377 50.7128 158.697 50.7128C157.016 50.7128 155.816 49.9414 155.046 48.4286L165.128 44.251L164.788 43.3894L164.778 43.4095ZM154.496 45.9241C154.406 43.0087 156.756 41.516 158.437 41.516C159.747 41.516 160.867 42.1772 161.237 43.1189L154.496 45.9241ZM146.304 53.2475H149.615V31.0568H146.304V53.2475ZM140.884 40.2938H140.774C140.033 39.4121 138.603 38.6107 136.803 38.6107C133.032 38.6107 129.582 41.9267 129.582 46.1845C129.582 50.4423 133.032 53.7083 136.803 53.7083C138.603 53.7083 140.023 52.9068 140.774 51.9952H140.884V53.0772C140.884 55.9624 139.343 57.5053 136.853 57.5053C134.823 57.5053 133.572 56.0426 133.052 54.8203L130.172 56.0225C131.002 58.0262 133.202 60.4807 136.853 60.4807C140.734 60.4807 144.014 58.1965 144.014 52.6163V39.0615H140.874V40.2938H140.884ZM137.083 50.7329C134.803 50.7329 132.882 48.8194 132.882 46.1845C132.882 43.5497 134.793 41.5761 137.083 41.5761C139.373 41.5761 141.114 43.5197 141.114 46.1845C141.114 48.8494 139.343 50.7329 137.083 50.7329ZM180.29 31.0568H172.369V53.2475H175.679V44.8421H180.3C183.961 44.8421 187.571 42.1872 187.571 37.9495C187.571 33.7117 183.971 31.0568 180.3 31.0568H180.29ZM180.37 41.7564H175.669V34.1525H180.37C182.841 34.1525 184.241 36.2063 184.241 37.9595C184.241 39.7127 182.841 41.7664 180.37 41.7664V41.7564ZM200.804 38.5706C198.413 38.5706 195.933 39.6225 194.903 41.9668L197.843 43.1991C198.473 41.9668 199.633 41.5761 200.864 41.5761C202.574 41.5761 204.314 42.608 204.344 44.4313V44.6617C203.744 44.3211 202.464 43.8002 200.894 43.8002C197.733 43.8002 194.513 45.5434 194.513 48.7993C194.513 51.7648 197.103 53.6783 200.013 53.6783C202.234 53.6783 203.464 52.6764 204.234 51.5143H204.344V53.2274H207.535V44.7219C207.535 40.7846 204.594 38.5806 200.804 38.5806V38.5706ZM200.414 50.7228C199.333 50.7228 197.823 50.1819 197.823 48.8394C197.823 47.1263 199.703 46.465 201.324 46.465C202.774 46.465 203.464 46.7756 204.344 47.2064C204.084 49.2602 202.324 50.7128 200.414 50.7128V50.7228ZM219.157 39.0515L215.366 48.6691H215.256L211.325 39.0515H207.765L213.666 52.4961L210.305 59.9798H213.756L222.847 39.0515H219.167H219.157ZM189.382 53.2475H192.692V31.0568H189.382V53.2475Z" fill="white"/>
<path d="M36.6061 34.4729L17.743 54.5296C17.743 54.5296 17.743 54.5296 17.743 54.5396C18.323 56.7136 20.3034 58.3166 22.6638 58.3166C23.6039 58.3166 24.4941 58.0561 25.2442 57.6153L25.3042 57.5752L46.5378 45.3027L36.5961 34.4629L36.6061 34.4729Z" fill="#EA4335"/>
<path d="M55.6893 31.0566H55.6693L46.4978 25.7168L36.166 34.9237L46.5278 45.3027L55.6493 40.033C57.2496 39.1714 58.3298 37.4783 58.3298 35.5348C58.3298 33.5912 57.2596 31.9182 55.6793 31.0566H55.6893Z" fill="#FBBC04"/>
<path d="M17.733 16.4702C17.6229 16.891 17.5629 17.3318 17.5629 17.7826V53.2275C17.5629 53.6783 17.6229 54.1191 17.733 54.5399L37.2462 34.9941L17.733 16.4702Z" fill="#4285F4"/>
<path d="M36.7461 35.4949L46.5077 25.717L25.2942 13.3944C24.5241 12.9336 23.6239 12.6631 22.6637 12.6631C20.3033 12.6631 18.323 14.266 17.7429 16.45L36.7461 35.4849V35.4949Z" fill="#34A853"/>
</g>
<defs>
<clipPath id="clip0_37_31">
<rect width="239" height="71" fill="white"/>
</clipPath>
</defs>
</svg>
